<svg height="512" viewBox="0 0 64 64" width="512" xmlns="http://www.w3.org/2000/svg"><g id="Migration"><ellipse cx="38" cy="26" rx="8" ry="2"/><path d="m30 32c0 .51 2.75 2 8 2s8-1.49 8-2v-3.48a18.866 18.866 0 0 1 -8 1.48 18.866 18.866 0 0 1 -8-1.48z"/><path d="m30 38c0 .51 2.75 2 8 2s8-1.49 8-2v-3.48a18.866 18.866 0 0 1 -8 1.48 18.866 18.866 0 0 1 -8-1.48z"/><path d="m30 44c0 .51 2.75 2 8 2s8-1.49 8-2v-3.48a18.866 18.866 0 0 1 -8 1.48 18.866 18.866 0 0 1 -8-1.48z"/><circle cx="27" cy="18" r="2"/><path d="m53 14h-2.06a8.977 8.977 0 0 0 -14.18-6.3 14.982 14.982 0 0 0 -26.45 6.34 8.993 8.993 0 0 0 .69 17.96h17v-6c0-2.56 4.49-3.82 9-3.98v-2.02a1 1 0 0 0 -1-1h-5.14a4 4 0 1 1 0-2h5.14a3.009 3.009 0 0 1 3 3v2.02c4.51.16 9 1.42 9 3.98h2v-4a1 1 0 0 1 1-1h2v2h-1v4a1 1 0 0 1 -1 1h-3v4h5a9 9 0 0 0 0-18zm4 9h-2v-2h2z"/><path d="m55 58a3.993 3.993 0 0 1 -7.86 1h-9.14a1 1 0 0 1 -1-1v-10h2v9h8.14a3.993 3.993 0 0 1 7.86 1z"/><path d="m28 36v2h-5a3.009 3.009 0 0 0 -3 3v13a5 5 0 0 1 -5 5h-5.14a4 4 0 1 1 0-2h5.14a3.009 3.009 0 0 0 3-3v-13a5 5 0 0 1 5-5z"/><path d="m54 43a3 3 0 0 0 -3-3h-3v2h3a1 1 0 0 1 1 1v8a1 1 0 0 0 1 1h5v-2h-4z"/><path d="m31 60h-3v2h4a1 1 0 0 0 1-1v-14h-2z"/><path d="m60 50h2v2h-2z"/><path d="m24 60h2v2h-2z"/></g></svg>