<?xml version="1.0" standalone="no"?>
<!DOCTYPE svg PUBLIC "-//W3C//DTD SVG 20010904//EN"
 "http://www.w3.org/TR/2001/REC-SVG-20010904/DTD/svg10.dtd">
<svg version="1.0" xmlns="http://www.w3.org/2000/svg"
 width="200.000000pt" height="150.000000pt" viewBox="0 0 200.000000 150.000000"
 preserveAspectRatio="xMidYMid meet">
<metadata>
Created by potrace 1.16, written by Peter Selinger 2001-2019
</metadata>
<g transform="translate(0.000000,150.000000) scale(0.100000,-0.100000)"
fill="#000000" stroke="none">
<path d="M0 1316 l0 -143 63 -6 c157 -15 243 -96 277 -260 15 -76 15 -329 -1
-392 -35 -144 -130 -226 -277 -241 l-62 -7 0 -123 0 -124 1000 0 1000 0 0 720
0 720 -1000 0 -1000 0 0 -144z m1056 -167 c48 -32 90 -107 100 -177 l7 -52
-60 0 -60 0 -7 41 c-18 111 -143 135 -176 33 -24 -72 13 -129 130 -205 140
-90 184 -160 185 -299 0 -75 -3 -90 -27 -132 -36 -61 -91 -88 -177 -88 -133 0
-209 80 -228 240 l-6 50 60 0 60 0 7 -46 c15 -109 73 -158 149 -123 31 14 47
48 47 100 0 75 -58 150 -170 221 -108 68 -153 142 -153 249 0 71 25 140 63
174 56 51 189 58 256 14z m721 16 c116 -35 173 -113 173 -239 -1 -39 -7 -88
-14 -109 -31 -86 -114 -156 -212 -178 l-54 -12 0 -174 0 -173 -55 0 -55 0 0
450 0 450 83 0 c46 0 106 -7 134 -15z"/>
<path d="M1670 915 l0 -158 37 6 c42 7 77 30 107 71 15 20 21 42 21 85 0 88
-38 133 -122 147 l-43 7 0 -158z"/>
<path d="M70 725 l0 -333 36 8 c89 20 125 95 132 271 9 237 -33 356 -132 379
l-36 8 0 -333z"/>
</g>
</svg>
