<?xml version="1.0" standalone="no"?>
<!DOCTYPE svg PUBLIC "-//W3C//DTD SVG 20010904//EN"
 "http://www.w3.org/TR/2001/REC-SVG-20010904/DTD/svg10.dtd">
<svg version="1.0" xmlns="http://www.w3.org/2000/svg"
 width="100.000000pt" height="76.000000pt" viewBox="0 0 100.000000 76.000000"
 preserveAspectRatio="xMidYMid meet">
<metadata>
Created by potrace 1.16, written by Peter Selinger 2001-2019
</metadata>
<g transform="translate(0.000000,76.000000) scale(0.100000,-0.100000)"
fill="#000000" stroke="none">
<path d="M90 385 l0 -245 410 0 410 0 0 245 0 245 -410 0 -410 0 0 -245z m180
109 c22 -22 25 -34 29 -109 3 -83 2 -85 -27 -115 -21 -20 -40 -30 -61 -30
l-31 0 0 146 0 146 33 -7 c17 -4 43 -18 57 -31z m275 11 c14 -13 25 -31 25
-40 0 -22 -27 -18 -33 5 -12 44 -67 31 -67 -16 0 -17 12 -32 41 -51 70 -46 87
-106 44 -149 -28 -27 -56 -26 -86 5 -25 24 -34 61 -15 61 9 0 18 -11 22 -25 7
-29 39 -42 59 -25 25 21 18 60 -17 88 -67 56 -78 71 -78 101 0 34 33 71 62 71
11 0 30 -11 43 -25z m272 -10 c13 -14 23 -33 23 -41 0 -32 -33 -76 -66 -90
-33 -14 -34 -16 -34 -69 0 -42 -3 -55 -15 -55 -13 0 -15 23 -15 146 l0 147 42
-6 c29 -4 50 -14 65 -32z"/>
</g>
</svg>
